<svg version="1.1" id="Calque_1" xmlns="http://www.w3.org/2000/svg" x="0" y="0" viewBox="0 0 160 160" style="enable-background:new 0 0 160 160" xml:space="preserve"><style>.st1{fill:#36a2eb}.st3{fill:#00d1b2}</style><path d="m80 6 64.1 37v74L80 154l-64.1-37V43L80 6z" style="fill:#18182f"/><path class="st1" d="M144.2 95.2v5.8l-64.1 37L16 101l1.3-20.4 62.8 2 1.3 18.2z"/><path class="st1" d="M144.4 76.6c-5 6-11 12-18 16-11 4-25 5-33-7-8-11-16-21-30-24-18-4-35 2-47 15 1 8-2 17 0 25 9-16 32-27 48-13 8 8 11 18 21 23 19 9 44 6 59-11v-24z"/><path d="M16 92.1C23.2 72.1 26.3 56 40.1 56c21 0 26 59 44 53s16-38 44-38c5.3 0 10.8 3.3 16.1 8.5V117l-64.1 37L16 117V92.1z" style="fill:#7f00ff;fill-opacity:.8"/><path class="st3" d="M144.2 111.2v5.8l-64.1 37L16 117l1.3-20.5 62.8 2 1.3 18.3z"/><path class="st3" d="M144.1 92c-9 16-33 28-47 13-11-11-18-24-34-27-17-3-34 2-47 14v26c6-12 20-19 33-20 7 0 14 4 18 10 8 11 16 21 30 24 18 4 34-4 47-15V92z"/><path d="m80.1 6 64.1 37v74l-64.1 37L16 117V43L80.1 6z" style="fill:none;stroke:#3c3c5b;stroke-width:8"/></svg>