<svg xmlns="http://www.w3.org/2000/svg" viewBox="0 0 160 160" style="enable-background:new 0 0 160 160" xml:space="preserve"><path d="m80 6 64.1 37v74L80 154l-64.1-37V43L80 6z" style="fill:#18182f"/><path d="M144.1 80.6c-22 .4-17.4 14.3-32.9 17.9C95.5 102 93 60 77.2 60c-15.7 0-19.2 40.8-38.9 68.8l-.6.8L80 154l64.1-37V80.6z" style="fill:#36a2eb"/><path d="M144.1 79.3C136.7 69.9 131.7 59 121 59c-19 0-14 31-35 31s-23.2-33.3-47-2c-7.6 10-13.7 21.1-18.5 31.7L80 154l64.1-37V79.3z" style="fill:#ffce56"/><path d="M15.9 92.1C23.1 72.1 26.2 56 40 56c21 0 26 59 44 53s16-38 44-38c5.3 0 10.8 3.3 16.1 8.5V117L80 154l-64.1-37V92.1z" style="fill:#fe6184;fill-opacity:.8"/><path d="m80 6 64.1 37v74L80 154l-64.1-37V43L80 6z" style="fill:none;stroke:#3c3c5b;stroke-width:8"/></svg>