<svg version="1.1" id="Calque_1" xmlns="http://www.w3.org/2000/svg" x="0" y="0" viewBox="-49 141 512 512" style="enable-background:new -49 141 512 512" xml:space="preserve"><style>.st2{fill:#fff}</style><path d="M289.6 357.6v91.9c0 11.8-9.6 21.4-21.4 21.4h-91.5l-43.4 47.8v-47.8h-30.7c-11.8 0-21.4-9.6-21.4-21.4v-91.9c0-11.8 9.6-21.4 21.4-21.4h165.7c11.7 0 21.3 9.6 21.3 21.4z" style="fill:#00d1b2"/><path d="M311.6 275.3H145.9c-11.8 0-21.4 9.6-21.4 21.4v39.4h143.7c11.8 0 21.4 9.6 21.4 21.4V410h22c11.8 0 21.4-9.6 21.4-21.4v-91.8c0-11.9-9.6-21.5-21.4-21.5z" style="fill:#7f00ff"/><path class="st2" d="M189.6 384h-60.8c-2.4 0-4.3-1.9-4.3-4.3s1.9-4.3 4.3-4.3h60.8c2.4 0 4.3 1.9 4.3 4.3s-1.9 4.3-4.3 4.3zM246.1 410.1H128.8c-2.4 0-4.3-1.9-4.3-4.3s1.9-4.3 4.3-4.3h117.3c2.4 0 4.3 1.9 4.3 4.3s-1.9 4.3-4.3 4.3zM246.1 436.2H128.8c-2.4 0-4.3-1.9-4.3-4.3s1.9-4.3 4.3-4.3h117.3c2.4 0 4.3 1.9 4.3 4.3s-1.9 4.3-4.3 4.3z"/></svg>