<svg version="1.1" id="Layer_1" xmlns="http://www.w3.org/2000/svg" x="0" y="0" viewBox="0 0 1159.8 273" style="enable-background:new 0 0 1159.8 273" xml:space="preserve"><style>.st0{fill:#27203f}</style><g id="XMLID_10_"><path id="XMLID_22_" class="st0" d="M152.7 0h85.4c10.5 0 19 8.5 19 19v91c0 10.5-8.5 19-19 19h-85.4c-10.5 0-19-8.5-19-19V19c0-10.5 8.5-19 19-19z"/><path id="XMLID_1_" d="M152.7 142.6h85.4c10.5 0 19 8.5 19 19v91c0 10.5-8.5 19-19 19h-85.4c-10.5 0-19-8.5-19-19v-91c0-10.5 8.5-19 19-19z" style="fill:#00d1b2"/><path id="XMLID_17_" class="st0" d="M19 0h85.4c10.5 0 19 8.5 19 19v91c0 10.5-8.5 19-19 19H19c-10.5 0-19-8.5-19-19V19C0 8.5 8.5 0 19 0z"/><path id="XMLID_16_" class="st0" d="M19 141.3h85.4c10.5 0 19 8.5 19 19V254c0 10.5-8.5 19-19 19H19c-10.5 0-19-8.5-19-19v-93.6c0-10.6 8.5-19.1 19-19.1z"/></g><path class="st0" d="M311.4 209.3V53.9l101.5-.2c6.1 0 11 1.4 14.7 4.2 3.6 2.8 6.1 7.5 7.5 13.9-.2 19.7-.2 39.5-.2 59.4s.1 40.7.2 62.4c-2.5 10.4-9.9 15.7-22.1 15.7H311.4zm79.1-34v-88h-37.1l-.2 88h37.3zM442.7 208.8l56.7-156.2h45.3l53.5 156.2h-87.6v-33.1h34.1L522 105.6l-37 103.2h-42.3zM604.9 176l79.3-.2.2-28.4H627c-12.3 0-19.6-5.2-22.1-15.7 0-2.7 0-5.5.1-8.5s.1-5.8.1-8.5h-.2v-43c1.3-6.5 3.8-11.1 7.5-13.9 3.6-2.8 8.5-4.2 14.7-4.2h101.5c-2.8 8-5.2 14.6-7.2 20s-3.6 9.8-5 13.3H704l-54.5.2v27.6l57.2-.2c6.1 0 11 1.4 14.7 4.2 3.6 2.8 6.1 7.5 7.5 13.9 0 .3 0 .7-.1 1.1-.1.4-.1.8-.1 1.1h.5v58c-2.5 10.4-9.9 15.7-22.1 15.7l-32.1.5v.2h-57.7L604.9 176zM735.9 209.1V53.9h42v61.4l38.6.2V53.6h42.3v.2h.2l-.2.7v85.8h-.2v34.8h.5l-.5 1.5v32.3h-42v-61.2H778v61.2h-42.1v.2zM932.2 133.5l64.2 75.6h-49.5l-38.8-42v42h-41.8v-49.5l-.2-.2.2-.2V53.9h42l-.2 44.3 30.6-44.5h50.2l-1.2 1.5h.7l-56.2 78.3zM1044.9 209.1h-41.8V53.9h42l-.2 155.2zM1134.1 189.4l.2 68.4L1092 273l-.2-63.2V86.2h-40.3V53.6l106 .7v31.8h-23.6v103.2h.2v.1z"/></svg>