<svg version="1.1" id="Layer_1" xmlns="http://www.w3.org/2000/svg" x="0" y="0" viewBox="94 81 800 631" style="enable-background:new 94 81 800 631" xml:space="preserve"><style>.st0{fill:#6900ff}.st1{fill:#fff;stroke:#d3d3d3;stroke-width:4;stroke-miterlimit:10}.st2{fill:#ebebed}.st3{fill:#00d1b2}</style><circle class="st0" cx="198.8" cy="375" r="45.7"/><path class="st1" d="M686 559 309.9 416.7c-10-3.8-15-14.9-11.2-24.9l96-253.8c3.8-10 14.9-15 24.9-11.2l376.1 142.3c10 3.8 15 14.9 11.2 24.9l-96 253.8c-3.8 10-15 15-24.9 11.2z"/><circle class="st2" cx="447.4" cy="212.7" r="29.3"/><path transform="rotate(-159.277 610.77 274.67)" class="st2" d="M496.4 265.1h228.7v19.1H496.4z"/><circle class="st2" cx="419.1" cy="287.5" r="29.3"/><path transform="rotate(-159.277 582.48 349.471)" class="st2" d="M468.1 339.9h228.7V359H468.1z"/><circle class="st2" cx="390.8" cy="362.4" r="29.3"/><path transform="rotate(-159.277 554.19 424.273)" class="st2" d="M439.8 414.7h228.7v19.1H439.8z"/><path class="st1" d="M638.2 667.4H236.1c-10.7 0-19.3-8.7-19.3-19.3V376.8c0-10.7 8.7-19.3 19.3-19.3h402.1c10.7 0 19.3 8.7 19.3 19.3v271.3c0 10.6-8.6 19.3-19.3 19.3z"/><circle class="st2" cx="297.4" cy="439.2" r="37"/><path class="st2" d="M361.3 413.5H590v19.1H361.3zM260.4 518.1h348.8v19.1H260.4zM260.4 556.3h241.3v19.1H260.4zM260.4 594.7h309.4v19.1H260.4zM361.3 442.7h149.5v19.1H361.3z"/><circle class="st0" cx="746.3" cy="492.4" r="40.2"/><circle class="st0" cx="329.7" cy="164.4" r="23.3"/><path class="st3" d="M218.8 235.6c-2.2 0-4-1.8-4-4v-26c0-2.2 1.8-4 4-4s4 1.8 4 4v26c0 2.2-1.8 4-4 4z"/><path class="st3" d="M231.8 222.6h-26c-2.2 0-4-1.8-4-4s1.8-4 4-4h26c2.2 0 4 1.8 4 4s-1.8 4-4 4zM715.4 621.1c-2.2.3-4.2-1.3-4.4-3.5l-3-25.8c-.3-2.2 1.3-4.2 3.5-4.4 2.2-.3 4.2 1.3 4.4 3.5l3 25.8c.2 2.2-1.3 4.1-3.5 4.4z"/><path class="st3" d="m726.8 606.7-25.8 3c-2.2.3-4.2-1.3-4.4-3.5-.3-2.2 1.3-4.2 3.5-4.4l25.8-3c2.2-.3 4.2 1.3 4.4 3.5s-1.3 4.1-3.5 4.4zM828.6 450.7c-.9.1-1.8-.6-1.9-1.5l-1.3-10.9c-.1-.9.6-1.8 1.5-1.9s1.8.6 1.9 1.5l1.3 10.9c.1.9-.6 1.8-1.5 1.9z"/><path class="st3" d="m833.4 444.6-10.9 1.3c-.9.1-1.8-.6-1.9-1.5-.1-.9.6-1.8 1.5-1.9l10.9-1.3c.9-.1 1.8.6 1.9 1.5.1 1-.6 1.8-1.5 1.9zM694.7 246.5c-3.1-.9-4.9-4.2-3.9-7.3l11.1-36.6c.9-3.1 4.2-4.9 7.3-3.9s4.9 4.2 3.9 7.3L702 242.6c-.9 3.1-4.2 4.9-7.3 3.9z"/><path class="st3" d="M718.6 233.7 682 222.6c-3.1-.9-4.9-4.2-3.9-7.3.9-3.1 4.2-4.9 7.3-3.9l36.6 11.1c3.1.9 4.9 4.2 3.9 7.3s-4.2 4.9-7.3 3.9z"/></svg>