<svg version="1.1" id="Calque_1" xmlns="http://www.w3.org/2000/svg" x="0" y="0" viewBox="-49 141 512 512" style="enable-background:new -49 141 512 512" xml:space="preserve"><style>.st6{fill:#dee3e7}</style><g id="surface1"><path d="M286.9 432.2c-5.6 15.3-14.2 28.6-25.3 39.5-12.8 12.4-29.5 22.3-49.6 29.3-.7.2-1.4.4-2 .6-.9.2-1.8.3-2.8.3h-.2c-1 0-2-.1-3-.3-.7-.1-1.4-.3-2-.6-20.2-7-36.9-16.9-49.6-29.3-11.2-10.9-19.7-24.2-25.3-39.5-10.2-27.8-9.7-58.4-9.2-83v-.4c.1-2 .2-4.2.2-6.5.2-11.6 9.4-21.1 20.9-21.8 24.1-1.3 42.8-9.2 58.7-24.7l.1-.1c2.6-2.4 6-3.6 9.3-3.6 3.2 0 6.4 1.2 8.9 3.6l.1.1c15.9 15.5 34.6 23.4 58.7 24.7 11.6.6 20.8 10.2 20.9 21.8 0 2.4.1 4.5.2 6.5v.2c.7 24.7 1.2 55.3-9 83.2z" style="fill:#00d1b2"/><path d="M286.9 432.2c-5.6 15.3-14.2 28.6-25.3 39.5-12.8 12.4-29.5 22.3-49.6 29.3-.7.2-1.4.4-2 .6-.9.2-1.8.3-2.8.3V292.1c3.2 0 6.4 1.2 8.9 3.6l.1.1c15.9 15.5 34.6 23.4 58.7 24.7 11.6.6 20.8 10.2 20.9 21.8 0 2.4.1 4.5.2 6.5v.2c.6 24.7 1.1 55.3-9.1 83.2z" style="fill:#04b290"/><path d="M259.3 397c0 28.8-23.4 52.2-52.1 52.3h-.2c-28.8 0-52.3-23.5-52.3-52.3 0-28.8 23.5-52.3 52.3-52.3h.2c28.7.1 52.1 23.5 52.1 52.3z" style="fill:#fff"/><path d="M259.3 397c0 28.8-23.4 52.2-52.1 52.3V344.7c28.7.1 52.1 23.5 52.1 52.3z" style="fill:#e1ebf0"/><path d="M230.7 389.5 207.2 413l-5.1 5.1c-1.2 1.2-2.8 1.8-4.4 1.8-1.6 0-3.2-.6-4.4-1.8l-10.9-10.9c-2.4-2.4-2.4-6.3 0-8.7 2.4-2.4 6.3-2.4 8.7 0l6.6 6.6 24.3-24.3c2.4-2.4 6.3-2.4 8.7 0 2.4 2.4 2.4 6.3 0 8.7z" style="fill:#b4d2d7"/><path d="M230.7 389.5 207.2 413v-17.4l14.8-14.8c2.4-2.4 6.3-2.4 8.7 0 2.4 2.4 2.4 6.3 0 8.7z" style="fill:#6fa5aa"/></g><path class="st6" d="M57.4 247.9c-1.1-1.1-2.4-1.6-3.9-1.6H11.1v-18.4c0-4.1 1.4-7.6 4.3-10.4 2.9-2.9 6.4-4.3 10.4-4.3 4.1 0 7.6 1.4 10.4 4.3 2.9 2.9 4.3 6.4 4.3 10.4 0 1 .4 1.9 1.1 2.6.7.7 1.6 1.1 2.6 1.1H48c1 0 1.9-.4 2.6-1.1.7-.7 1.1-1.6 1.1-2.6 0-7.1-2.5-13.2-7.6-18.2C39 204.5 33 202 25.9 202s-13.2 2.5-18.2 7.6c-5.1 5-7.7 11.1-7.7 18.2v18.4h-1.8c-1.5 0-2.8.5-3.9 1.6s-1.6 2.4-1.6 3.9V285c0 1.5.5 2.8 1.6 3.9s2.4 1.6 3.9 1.6h55.3c1.5 0 2.8-.5 3.9-1.6s1.6-2.4 1.6-3.9v-33.2c0-1.5-.5-2.8-1.6-3.9z"/><circle class="st6" cx="25.8" cy="311.2" r="5.3"/><circle class="st6" cx="25.8" cy="339.2" r="5.3"/><circle class="st6" cx="25.8" cy="367.1" r="5.3"/><circle class="st6" cx="25.8" cy="395" r="5.3"/><circle class="st6" cx="25.8" cy="423" r="5.3"/><circle class="st6" cx="55.2" cy="423" r="5.3"/><circle class="st6" cx="84.5" cy="423" r="5.3"/></svg>